# Blender 3.5.1
# www.blender.org
mtllib Card.mtl
o Cube
v 1.000000 -0.005000 0.570201
v 1.000000 0.005000 0.570201
v -1.000000 -0.005000 0.570201
v -1.000000 0.005000 0.570201
v 0.940079 -0.005000 -1.419350
v 1.000000 -0.005000 -1.334302
v 0.955588 -0.005000 -1.416452
v 0.970040 -0.005000 -1.407956
v 0.982450 -0.005000 -1.394440
v 0.991972 -0.005000 -1.376826
v 0.997958 -0.005000 -1.356314
v 1.000000 0.005000 -1.334302
v 0.940079 0.005000 -1.419350
v 0.997958 0.005000 -1.356314
v 0.991972 0.005000 -1.376826
v 0.982450 0.005000 -1.394440
v 0.970040 0.005000 -1.407956
v 0.955588 0.005000 -1.416452
v 1.000000 -0.005000 1.334302
v 0.940079 -0.005000 1.419350
v 0.997958 -0.005000 1.356314
v 0.991972 -0.005000 1.376826
v 0.982450 -0.005000 1.394440
v 0.970040 -0.005000 1.407956
v 0.955588 -0.005000 1.416452
v 0.940079 0.005000 1.419350
v 1.000000 0.005000 1.334302
v 0.955588 0.005000 1.416452
v 0.970040 0.005000 1.407956
v 0.982450 0.005000 1.394440
v 0.991972 0.005000 1.376826
v 0.997958 0.005000 1.356314
v -1.000000 -0.005000 -1.334302
v -0.940079 -0.005000 -1.419350
v -0.997958 -0.005000 -1.356314
v -0.991972 -0.005000 -1.376826
v -0.982450 -0.005000 -1.394440
v -0.970040 -0.005000 -1.407956
v -0.955588 -0.005000 -1.416452
v -0.940079 0.005000 -1.419350
v -1.000000 0.005000 -1.334302
v -0.955588 0.005000 -1.416452
v -0.970040 0.005000 -1.407956
v -0.982450 0.005000 -1.394440
v -0.991972 0.005000 -1.376826
v -0.997958 0.005000 -1.356314
v -0.940079 -0.005000 1.419350
v -1.000000 -0.005000 1.334302
v -0.955588 -0.005000 1.416452
v -0.970040 -0.005000 1.407956
v -0.982450 -0.005000 1.394440
v -0.991972 -0.005000 1.376826
v -0.997958 -0.005000 1.356314
v -1.000000 0.005000 1.334302
v -0.940079 0.005000 1.419350
v -0.997958 0.005000 1.356314
v -0.991972 0.005000 1.376826
v -0.982450 0.005000 1.394440
v -0.970040 0.005000 1.407956
v -0.955588 0.005000 1.416452
vn -0.0000 1.0000 -0.0000
vn -0.0000 -1.0000 -0.0000
vn -1.0000 -0.0000 -0.0000
vn -0.0000 -0.0000 1.0000
vn 1.0000 -0.0000 -0.0000
vn -0.0000 -0.0000 -1.0000
vn 0.1837 -0.0000 -0.9830
vn 0.5068 -0.0000 -0.8621
vn 0.7366 -0.0000 -0.6763
vn 0.8797 -0.0000 -0.4756
vn 0.9600 -0.0000 -0.2801
vn 0.9957 -0.0000 -0.0924
vn 0.1837 -0.0000 0.9830
vn 0.5068 -0.0000 0.8621
vn 0.7366 -0.0000 0.6763
vn 0.8797 -0.0000 0.4756
vn 0.9600 -0.0000 0.2801
vn 0.9957 -0.0000 0.0924
vn -0.9957 -0.0000 0.0924
vn -0.9600 -0.0000 0.2801
vn -0.8797 -0.0000 0.4756
vn -0.7366 -0.0000 0.6763
vn -0.5068 -0.0000 0.8621
vn -0.1837 -0.0000 0.9830
vn -0.1837 -0.0000 -0.9830
vn -0.5068 -0.0000 -0.8621
vn -0.7366 -0.0000 -0.6763
vn -0.8797 -0.0000 -0.4756
vn -0.9600 -0.0000 -0.2801
vn -0.9957 -0.0000 -0.0924
vt 0.125000 0.574783
vt 0.375000 0.175217
vt 0.875000 0.574783
vt 0.625000 0.175217
vt 0.375000 0.574783
vt 0.625000 0.574783
vt 0.132490 0.750000
vt 0.375000 0.992510
vt 0.125000 0.742510
vt 0.375000 0.007490
vt 0.130552 0.749745
vt 0.375000 0.994448
vt 0.128745 0.748996
vt 0.375000 0.996255
vt 0.127194 0.747806
vt 0.375000 1.000000
vt 0.375000 0.000000
vt 0.126004 0.746255
vt 0.375000 0.003745
vt 0.125255 0.744448
vt 0.375000 0.005552
vt 0.875000 0.742510
vt 0.625000 0.007490
vt 0.867510 0.750000
vt 0.625000 0.992510
vt 0.874745 0.744448
vt 0.625000 0.005552
vt 0.873996 0.746255
vt 0.625000 0.003745
vt 0.872806 0.747806
vt 0.625000 1.000000
vt 0.625000 0.000000
vt 0.871255 0.748997
vt 0.625000 0.996255
vt 0.869448 0.749745
vt 0.625000 0.994448
vt 0.125000 0.507490
vt 0.375000 0.242510
vt 0.132490 0.500000
vt 0.375000 0.257490
vt 0.125255 0.505552
vt 0.375000 0.244448
vt 0.126003 0.503745
vt 0.375000 0.246255
vt 0.127194 0.502194
vt 0.375000 0.250000
vt 0.128745 0.501004
vt 0.375000 0.253745
vt 0.130552 0.500255
vt 0.375000 0.255552
vt 0.867510 0.500000
vt 0.625000 0.257490
vt 0.875000 0.507490
vt 0.625000 0.242510
vt 0.869448 0.500255
vt 0.625000 0.255552
vt 0.871255 0.501004
vt 0.625000 0.253745
vt 0.872806 0.502194
vt 0.625000 0.250000
vt 0.873997 0.503745
vt 0.625000 0.246255
vt 0.874745 0.505552
vt 0.625000 0.244448
vt 0.375000 0.742510
vt 0.367510 0.750000
vt 0.375000 0.757490
vt 0.374745 0.744448
vt 0.375000 0.744448
vt 0.373996 0.746255
vt 0.375000 0.746255
vt 0.372806 0.747806
vt 0.375000 0.750000
vt 0.371255 0.748997
vt 0.375000 0.753745
vt 0.369449 0.749745
vt 0.375000 0.755552
vt 0.632490 0.750000
vt 0.625000 0.757490
vt 0.625000 0.742510
vt 0.630552 0.749745
vt 0.625000 0.755552
vt 0.628745 0.748996
vt 0.625000 0.753745
vt 0.627194 0.747806
vt 0.625000 0.750000
vt 0.626004 0.746255
vt 0.625000 0.746255
vt 0.625255 0.744448
vt 0.625000 0.744448
vt 0.367510 0.500000
vt 0.375000 0.492510
vt 0.375000 0.507490
vt 0.369448 0.500255
vt 0.375000 0.494448
vt 0.371255 0.501004
vt 0.375000 0.496255
vt 0.372806 0.502194
vt 0.375000 0.500000
vt 0.373996 0.503745
vt 0.375000 0.503745
vt 0.374745 0.505552
vt 0.375000 0.505552
vt 0.625000 0.507490
vt 0.632490 0.500000
vt 0.625000 0.492510
vt 0.625255 0.505552
vt 0.625000 0.505552
vt 0.626004 0.503745
vt 0.625000 0.503745
vt 0.627194 0.502194
vt 0.625000 0.500000
vt 0.628745 0.501004
vt 0.625000 0.496255
vt 0.630552 0.500255
vt 0.625000 0.494448
s 0
usemtl Top
f 54/104/1 56/107/1 57/109/1 58/111/1 59/113/1 60/115/1 55/105/1 26/51/1 28/55/1 29/57/1 30/59/1 31/61/1 32/63/1 27/53/1 2/3/1 4/6/1
f 19/37/2 21/41/2 22/43/2 23/45/2 24/47/2 25/49/2 20/39/2 47/91/2 49/94/2 50/96/2 51/98/2 52/100/2 53/102/2 48/93/2 3/5/2 1/1/2
f 48/93/3 54/104/3 4/6/3 3/5/3
f 20/40/4 26/52/4 55/106/4 47/92/4
f 1/2/5 2/4/5 27/54/5 19/38/5
f 26/52/13 20/40/13 25/50/13 28/56/13
f 28/56/14 25/50/14 24/48/14 29/58/14
f 29/58/15 24/48/15 23/46/15 30/60/15
f 30/60/16 23/46/16 22/44/16 31/62/16
f 31/62/17 22/44/17 21/42/17 32/64/17
f 32/64/18 21/42/18 19/38/18 27/54/18
f 54/104/19 48/93/19 53/103/19 56/108/19
f 56/108/20 53/103/20 52/101/20 57/110/20
f 57/110/21 52/101/21 51/99/21 58/112/21
f 58/112/22 51/99/22 50/97/22 59/114/22
f 59/114/23 50/97/23 49/95/23 60/116/23
f 60/116/24 49/95/24 47/92/24 55/106/24
usemtl Bottom
f 1/1/2 3/5/2 33/65/2 35/68/2 36/70/2 37/72/2 38/74/2 39/76/2 34/66/2 5/7/2 7/11/2 8/13/2 9/15/2 10/18/2 11/20/2 6/9/2
f 4/6/1 2/3/1 12/22/1 14/26/1 15/28/1 16/30/1 17/33/1 18/35/1 13/24/1 40/78/1 42/81/1 43/83/1 44/85/1 45/87/1 46/89/1 41/80/1
f 3/5/3 4/6/3 41/80/3 33/65/3
f 34/67/6 40/79/6 13/25/6 5/8/6
f 5/8/7 13/25/7 18/36/7 7/12/7
f 7/12/8 18/36/8 17/34/8 8/14/8
f 8/14/9 17/34/9 16/31/9 9/16/9
f 9/17/10 16/32/10 15/29/10 10/19/10
f 10/19/11 15/29/11 14/27/11 11/21/11
f 11/21/12 14/27/12 12/23/12 6/10/12
f 40/79/25 34/67/25 39/77/25 42/82/25
f 42/82/26 39/77/26 38/75/26 43/84/26
f 43/84/27 38/75/27 37/73/27 44/86/27
f 44/86/28 37/73/28 36/71/28 45/88/28
f 45/88/29 36/71/29 35/69/29 46/90/29
f 46/90/30 35/69/30 33/65/30 41/80/30
f 6/10/5 12/23/5 2/4/5 1/2/5
