# Blender 3.5.1
# www.blender.org
o Cube
v -0.238615 -0.454667 -0.032475
v -0.238615 -0.022334 -0.032475
v -0.238615 -0.454667 -0.464807
v -0.238615 -0.022334 -0.464807
v 0.193717 -0.022334 -0.464808
vn -1.0000 -0.0000 -0.0000
vn 0.7071 -0.0000 0.7071
vn -0.0000 1.0000 -0.0000
vn -0.0000 -0.0000 -1.0000
vn 0.7071 -0.7071 -0.0000
vt 0.375000 0.000000
vt 0.625000 0.000000
vt 0.375000 0.250000
vt 0.625000 0.250000
vt 0.625000 0.500000
s 0
f 1/1/1 2/2/1 4/4/1 3/3/1
f 2/2/2 1/1/2 5/5/2
f 4/4/3 2/2/3 5/5/3
f 3/3/4 4/4/4 5/5/4
f 1/1/5 3/3/5 5/5/5
o Cube.001
v -0.173684 -0.023534 0.033129
v -0.173684 -0.455866 0.033129
v 0.258649 -0.023534 0.033129
v 0.258648 -0.455867 0.033129
v 0.258648 -0.455867 -0.399203
vn -0.0000 -0.0000 1.0000
vn -0.7071 -0.0000 -0.7071
vn -0.0000 -1.0000 -0.0000
vn 1.0000 -0.0000 -0.0000
vn -0.0000 0.7071 -0.7071
vt 0.375000 0.000000
vt 0.625000 0.000000
vt 0.375000 0.250000
vt 0.625000 0.250000
vt 0.625000 0.500000
s 0
f 6/6/6 7/7/6 9/9/6 8/8/6
f 7/7/7 6/6/7 10/10/7
f 9/9/8 7/7/8 10/10/8
f 8/8/9 9/9/9 10/10/9
f 6/6/10 8/8/10 10/10/10
